<svg xmlns="http://www.w3.org/2000/svg" version="1.1" xmlns:xlink="http://www.w3.org/1999/xlink" xmlns:svgjs="http://svgjs.dev/svgjs" width="1000" height="1125" viewBox="0 0 1000 1125"><g transform="matrix(1,0,0,1,1.7053025658242404e-13,0)"><svg viewBox="0 0 320 360" data-background-color="#c8c8c8" preserveAspectRatio="xMidYMid meet" height="1125" width="1000" xmlns="http://www.w3.org/2000/svg" xmlns:xlink="http://www.w3.org/1999/xlink"><g id="tight-bounds" transform="matrix(1,0,0,1,0,0)"><svg viewBox="0 0 320 360" height="360" width="320"><g><svg></svg></g><g><svg viewBox="0 0 320 360" height="360" width="320"><g><path xmlns="http://www.w3.org/2000/svg" d="M20.961 227.22l3.726 4.658-1.863-6.056c-0.466-2.795-3.726 0.466-1.863 1.398M25.153 224.425c1.397 2.329 2.795 4.658 2.795 6.987 0 3.261 2.795 4.658 5.123 5.589-3.261-3.726-5.124-13.974-7.918-12.576M204.017 26.929c7.918 0 15.371-0.932 23.756 0.931 20.495 5.124 37.729 15.371 49.374 29.811l32.606 52.169c1.397 13.042 4.192 27.482 3.726 43.319 3.261 0 2.795-4.658 6.521-5.59-3.726 9.316-5.59 20.961-6.521 34.469-2.329-7.453 0-18.632 0.466-24.687-3.261 5.124-5.124 1.397-5.124-0.932 0.466-3.726-1.397-3.261-2.795-4.658-5.124-4.658-8.384-9.782-12.11-17.7 2.329-6.055 2.795-14.905-4.658-19.563-2.329-1.397-5.124-3.726-6.521-7.453-1.863-5.124-5.124-11.179-4.193-19.097 0.466-2.329-6.987 5.124-11.179 1.863-18.166-12.576-36.332-27.016-58.224-39.127-11.645 0-20.029-4.192-24.221-9.316-3.726-4.658-0.932-10.713 4.658-11.179 3.261 0 6.987-0.932 9.782 0.932 0.466-1.863 2.329-4.192 4.657-4.192M157.904 16.215l0.932 0.466c4.658 0.932 6.987 7.453 12.11 5.124 0 3.261 0.466 6.521-0.466 8.85-1.397 3.726-5.59 3.726-8.85 3.726-31.208-1.863-49.374 11.179-68.471 22.358-5.124 3.261-10.713 5.59-14.906 9.782-20.029 18.632-41.921 35.866-47.045 70.335l-4.192 38.195c-0.466 4.192-5.124 8.384-4.192 13.508l3.26 22.824c-3.261-3.261-5.124 0.932-4.192 2.795 0.466 1.397 2.329 6.055 5.124 1.863 3.726 6.987 7.453 20.495 12.576 26.55 15.837 18.632 36.332 35.4 53.101 52.169 4.192-0.932 7.453-0.932 8.384-3.727 1.397 2.795-1.397 5.59-3.726 6.056 7.453 4.658 15.837 8.85 27.016 9.781 14.44 0.932 27.948 3.261 40.524 6.522 6.521-1.863 13.042-2.795 20.029-3.261 2.329 0 3.726-3.726 6.521-4.658l0.466-4.658c2.795 4.192 2.329-1.397 0.466-4.192 3.261 2.795 4.192 5.124 5.589 6.987 0-1.397 3.726-6.521 3.727-0.466l0.931-6.055c1.397-0.932 1.863 5.124 3.261 0.931 1.397-4.192 4.192-0.932 6.987-2.329-0.932 1.863-0.466 5.59 2.794 3.261l3.727-3.261c2.329 5.59 6.055 3.261 7.918 2.329 20.495-13.042 40.99-28.413 60.553-43.784l-0.466 6.055 2.329-7.453c2.329 2.329 4.192 0.466 5.124-0.931 2.795-4.658 6.521-9.316 12.577-13.508-7.453 20.029-16.303 35.866-27.482 48.908l-4.658 5.59c0 3.261-0.932 7.453-4.658 7.918-1.863 0.466-5.59-0.932-8.384 1.863-1.397 1.863 3.261 5.59-0.466 2.795-3.261-2.329-6.521 0-10.248 0.932-2.795 0.932 1.863 3.726 2.795 5.589 0.932 1.863 1.863 3.726 1.398 6.056l-5.124-5.59c-6.055 3.261-9.782 9.316-14.906 13.974-2.329 1.863-1.397 5.124-1.397 7.918-3.261 0-6.987-0.932-8.85 0.932-1.397 1.863-0.932 4.658-0.932 7.453-4.658-0.466-5.124-7.453-9.315-6.056-4.192 0.932-8.85 1.397-12.577 3.727 2.795 5.59-4.658 2.329-3.726 3.26-6.987-4.192-13.042-7.453-20.495-4.658-15.837-5.124-35.4-2.795-49.84-0.931 0-2.329 0.466-4.658-0.466-5.124-0.932 2.329-3.726 1.397-3.26 1.397-8.85-6.055-17.7-9.782-27.016-14.905-8.384 0.932-16.303-3.261-18.632-5.59-6.521-6.055-13.974-2.795-20.029-4.192-13.042-3.261-17.7-16.769-19.098-26.084-0.932-4.658-4.658-6.521-6.055-6.056-6.055-19.563-15.371-37.263-22.824-55.429-1.863-4.658-1.397-9.316-1.397-14.44 2.329 0.932 4.658 0.466 4.192-2.794-2.329-15.371-7.918-27.016-13.974-38.195 3.261-15.837 3.726-34.469 11.179-48.443 6.521-12.576 18.632-19.098 27.016-29.811 2.795-3.726 2.795-8.85 5.59-12.11 9.316-9.316 18.632-19.098 28.879-27.482 4.658-3.726 10.247 0 17.234-1.397 2.329-8.384 11.645-15.837 20.495-13.508 3.726 0.932 11.179-8.85 13.508-9.782 3.726-1.397 1.863 3.726 1.863 6.987 8.85-6.987 20.961-10.713 32.14-14.906" fill="#6b7280" fill-rule="nonzero" stroke="none" stroke-width="1" stroke-linecap="butt" stroke-linejoin="miter" stroke-miterlimit="10" stroke-dasharray="" stroke-dashoffset="0" font-family="none" font-weight="none" font-size="none" text-anchor="none" style="mix-blend-mode: normal" data-fill-palette-color="tertiary"></path></g><g transform="matrix(1,0,0,1,64,163.84546805349183)"><svg viewBox="0 0 192 32.309063893016344" height="32.309063893016344" width="192"><g><svg viewBox="0 0 192 32.309063893016344" height="32.309063893016344" width="192"><g><svg viewBox="0 0 192 32.309063893016344" height="32.309063893016344" width="192"><g><svg viewBox="0 0 192 32.309063893016344" height="32.309063893016344" width="192"><g id="textblocktransform"><svg viewBox="0 0 192 32.309063893016344" height="32.309063893016344" width="192" id="textblock"><g><svg viewBox="0 0 192 32.309063893016344" height="32.309063893016344" width="192"><g transform="matrix(1,0,0,1,0,0)"><svg width="192" viewBox="0.17000001668930054 -40.15999984741211 328.5899963378906 55.29999923706055" height="32.309063893016344" data-palette-color="#6b7280"><path d="M0.17-0.54L0.17-1.25Q0.17-1.27 0.2-1.35 0.22-1.44 0.37-1.44L0.37-1.44 0.9-1.44Q1.93-1.51 3-1.53 4.08-1.54 4.96-1.79 5.83-2.05 6.4-2.7 6.96-3.34 6.96-4.71L6.96-4.71 6.96-29.71Q6.96-30.66 6.57-31.26 6.18-31.86 5.54-32.23 4.91-32.59 4.1-32.78 3.3-32.96 2.47-33.08L2.47-33.08 1.95-33.08Q1.83-33.08 1.79-33.15 1.76-33.23 1.76-33.28L1.76-33.28 1.76-34.23Q1.76-34.28 1.79-34.35 1.83-34.42 1.95-34.42L1.95-34.42 26.27-34.42Q26.71-34.42 26.9-34.27 27.1-34.11 27.15-33.57L27.15-33.57 27.59-25.76Q27.59-25.63 27.38-25.57 27.17-25.51 27-25.51L27-25.51Q26.81-25.51 26.61-25.56 26.42-25.61 26.34-25.71L26.34-25.71Q26.17-25.95 26.1-26.43 26.03-26.9 25.94-27.49 25.85-28.08 25.7-28.71 25.54-29.35 25.22-29.88 24.9-30.42 24.35-30.82 23.8-31.23 22.95-31.37L22.95-31.37 14.23-31.37Q13.92-31.37 13.92-31.05L13.92-31.05 13.92-19.41Q13.92-19.17 14.16-19.17L14.16-19.17 21.14-19.17Q21.75-19.17 22.35-19.32 22.95-19.48 23.4-19.9 23.85-20.31 24.13-21.06 24.41-21.8 24.41-22.97L24.41-22.97Q24.41-23.17 24.61-23.17L24.61-23.17 25.56-23.17Q25.76-23.17 25.76-22.97L25.76-22.97 25.76-11.79Q25.76-11.67 25.68-11.63 25.61-11.6 25.56-11.6L25.56-11.6 24.61-11.6Q24.49-11.6 24.45-11.67 24.41-11.74 24.41-11.79L24.41-11.79Q24.41-13.16 24.13-14 23.85-14.84 23.39-15.32 22.92-15.8 22.33-15.95 21.73-16.11 21.07-16.11L21.07-16.11 14.16-16.11Q13.92-16.11 13.92-15.87L13.92-15.87 13.92-5.2Q13.92-4.49 14.14-4.06 14.36-3.64 14.73-3.42 15.11-3.2 15.6-3.13 16.09-3.05 16.63-3.05L16.63-3.05 23.29-3.05Q24.71-3.05 25.66-3.7 26.61-4.35 27.2-5.27 27.78-6.2 28.06-7.2 28.34-8.2 28.42-8.91L28.42-8.91Q28.47-9.23 28.74-9.41 29-9.59 29.35-9.59L29.35-9.59Q29.47-9.59 29.64-9.5 29.81-9.4 29.81-9.28L29.81-9.28 29-0.34Q28.96-0.22 28.87-0.11 28.78 0 28.66 0L28.66 0 0.37 0Q0.22 0 0.2-0.09 0.17-0.17 0.17-0.2L0.17-0.2 0.17-0.54ZM33.57-19.85L41.65-23.68Q41.75-23.73 41.86-23.78 41.97-23.83 42.01-23.83L42.01-23.83Q42.43-23.83 42.43-23.24L42.43-23.24 42.43-19.19Q42.45-19.04 42.62-19.04L42.62-19.04Q42.77-19.04 42.97-19.14L42.97-19.14Q44.06-19.73 45.11-20.35 46.16-20.97 47.23-21.48 48.29-22 49.36-22.31 50.44-22.63 51.54-22.63L51.54-22.63Q52.63-22.63 53.39-22.36 54.15-22.09 54.66-21.67 55.17-21.24 55.5-20.74 55.83-20.24 56.08-19.78L56.08-19.78Q56.1-19.7 56.17-19.59 56.25-19.48 56.36-19.36 56.47-19.24 56.58-19.15 56.69-19.07 56.81-19.07L56.81-19.07Q57.15-19.09 57.52-19.29L57.52-19.29Q59.89-20.48 61.39-21.15 62.89-21.83 63.9-22.16 64.91-22.49 65.61-22.56 66.31-22.63 67.04-22.63L67.04-22.63Q68.48-22.63 69.52-22.12 70.55-21.61 71.26-20.76 71.97-19.92 72.4-18.84 72.82-17.75 73.04-16.61 73.26-15.48 73.34-14.37 73.41-13.26 73.41-12.35L73.41-12.35Q73.41-11.5 73.37-10.77 73.34-10.03 73.3-9.17 73.26-8.3 73.23-7.2 73.19-6.1 73.19-4.54L73.19-4.54Q73.19-3.81 73.46-3.32 73.73-2.83 74.16-2.51 74.58-2.2 75.1-2.04 75.61-1.88 76.1-1.78 76.58-1.68 76.99-1.62 77.39-1.56 77.61-1.46L77.61-1.46Q77.71-1.42 77.78-1.15 77.85-0.88 77.85-0.76L77.85-0.76Q77.85-0.61 77.81-0.33 77.76-0.05 77.61 0L77.61 0 63.99 0Q63.84-0.05 63.79-0.33 63.74-0.61 63.74-0.76L63.74-0.76Q63.74-0.88 63.82-1.15 63.89-1.42 63.99-1.46L63.99-1.46Q64.3-1.61 64.89-1.7 65.48-1.78 66.06-2.06 66.65-2.34 67.08-2.93 67.5-3.52 67.5-4.69L67.5-4.69 67.5-4.74Q67.62-5.49 67.66-6.41 67.7-7.32 67.7-8.42L67.7-8.42Q67.7-8.96 67.69-9.44 67.67-9.91 67.67-10.41 67.67-10.91 67.66-11.5 67.65-12.08 67.65-12.84L67.65-12.84Q67.65-14.04 67.54-15.23 67.43-16.43 67-17.38 66.57-18.33 65.74-18.93 64.91-19.53 63.45-19.53L63.45-19.53Q63.21-19.53 62.91-19.47 62.62-19.41 62.11-19.23 61.59-19.04 60.74-18.68 59.89-18.31 58.49-17.72L58.49-17.72Q58.3-17.6 58.09-17.44 57.88-17.29 57.86-17.04L57.86-17.04 57.86-4.54Q57.86-3.44 58.3-2.87 58.74-2.29 59.32-2.04 59.91-1.78 60.5-1.7 61.08-1.61 61.4-1.46L61.4-1.46Q61.5-1.42 61.57-1.15 61.64-0.88 61.64-0.76L61.64-0.76Q61.64-0.61 61.59-0.33 61.55-0.05 61.4 0L61.4 0 48.65 0Q48.51-0.05 48.46-0.33 48.41-0.61 48.41-0.76L48.41-0.76Q48.41-0.88 48.48-1.15 48.56-1.42 48.65-1.46L48.65-1.46Q48.97-1.61 49.56-1.7 50.14-1.78 50.73-2.04 51.32-2.29 51.76-2.87 52.19-3.44 52.19-4.54L52.19-4.54 52.19-15.19Q52.19-16.14 52.05-16.93 51.9-17.72 51.49-18.3 51.07-18.87 50.33-19.19 49.58-19.51 48.39-19.51L48.39-19.51Q47.82-19.51 46.97-19.2 46.12-18.9 45.22-18.43 44.33-17.97 43.56-17.46 42.8-16.94 42.43-16.5L42.43-16.5 42.43-4.54Q42.43-3.44 42.87-2.87 43.31-2.29 43.89-2.04 44.48-1.78 45.07-1.7 45.65-1.61 45.97-1.46L45.97-1.46Q46.07-1.42 46.14-1.15 46.21-0.88 46.21-0.76L46.21-0.76Q46.21-0.61 46.16-0.33 46.12-0.05 45.97 0L45.97 0 33.23 0Q33.08-0.05 33.03-0.33 32.98-0.61 32.98-0.76L32.98-0.76Q32.98-0.88 33.05-1.15 33.13-1.42 33.23-1.46L33.23-1.46Q33.54-1.61 34.13-1.7 34.71-1.78 35.3-2.04 35.89-2.29 36.33-2.84 36.77-3.39 36.77-4.49L36.77-4.49 36.77-16.92Q36.77-17.5 36.45-17.83 36.13-18.16 35.64-18.33 35.15-18.51 34.59-18.62 34.03-18.73 33.52-18.87L33.52-18.87Q33.37-18.92 33.29-19.01 33.2-19.09 33.2-19.36L33.2-19.36Q33.2-19.48 33.27-19.6 33.35-19.73 33.57-19.85L33.57-19.85ZM92.7-2.71L89.84-0.49Q89.03 0.07 87.93 0.39 86.84 0.71 85.74 0.71L85.74 0.71Q82.76 0.71 81.21-0.63 79.66-1.98 79.66-4.27L79.66-4.27Q79.66-5.59 80.26-6.54 80.85-7.5 82.03-8.23 83.2-8.96 84.92-9.56 86.64-10.16 88.91-10.74L88.91-10.74Q90.13-11.06 90.88-11.43 91.62-11.79 92.26-12.13L92.26-12.13Q92.67-12.35 92.73-12.52 92.79-12.7 92.79-12.84L92.79-12.84 92.79-17.09Q92.79-17.9 92.56-18.59 92.33-19.29 91.87-19.8 91.4-20.31 90.74-20.61 90.08-20.9 89.25-20.9L89.25-20.9Q88.54-20.9 87.93-20.65 87.32-20.41 86.88-19.95 86.45-19.48 86.19-18.85 85.93-18.21 85.93-17.41L85.93-17.41Q85.93-17.33 85.94-17.19 85.96-17.04 85.98-16.88 86.01-16.72 86.03-16.6 86.05-16.48 86.05-16.46L86.05-16.46Q86.03-16.41 85.65-16.26 85.27-16.11 84.72-15.93 84.17-15.75 83.52-15.56 82.86-15.38 82.26-15.21 81.66-15.04 81.21-14.9 80.76-14.77 80.59-14.75L80.59-14.75Q80.32-14.75 80.26-15.03 80.2-15.31 80.2-15.58L80.2-15.58Q80.2-16.99 81.05-18.33 81.9-19.68 83.33-20.72 84.76-21.75 86.62-22.39 88.47-23.02 90.45-23.02L90.45-23.02Q92.21-23.02 93.6-22.57 94.99-22.12 95.97-21.33 96.94-20.53 97.46-19.49 97.97-18.46 97.97-17.29L97.97-17.29 97.97-5.64Q97.97-5 98.44-4.5 98.92-4 99.68-4L99.68-4Q100.12-4 100.47-4.16 100.83-4.32 101.11-4.53 101.39-4.74 101.58-4.9 101.78-5.05 101.92-5.05L101.92-5.05Q102.12-5.05 102.14-4.9 102.17-4.74 102.17-4.61L102.17-4.61Q102.17-4.2 102.06-3.77 101.95-3.34 101.68-3.15L101.68-3.15Q100.48-2.25 99.56-1.53 98.63-0.81 97.87-0.29 97.11 0.22 96.5 0.49 95.89 0.76 95.36 0.76L95.36 0.76Q94.87 0.76 94.49 0.49 94.11 0.22 93.83-0.17 93.55-0.56 93.35-1.01 93.16-1.46 93.02-1.86 92.89-2.25 92.82-2.49 92.74-2.73 92.7-2.71L92.7-2.71ZM85.35-4.86L85.35-4.86Q85.35-4.2 85.6-3.78 85.86-3.37 86.27-3.15 86.69-2.93 87.21-2.84 87.74-2.76 88.3-2.76L88.3-2.76Q88.81-2.76 89.57-3.02 90.33-3.27 91.05-3.7 91.77-4.13 92.28-4.68 92.79-5.22 92.79-5.79L92.79-5.79 92.79-9.81Q92.79-10.08 92.6-10.08L92.6-10.08Q92.55-10.08 92.5-10.06L92.5-10.06 86.84-7.42Q86.49-7.18 86.21-6.97 85.93-6.76 85.74-6.48 85.54-6.2 85.44-5.82 85.35-5.44 85.35-4.86ZM104.63-19.87L112.71-23.68Q112.81-23.73 112.92-23.78 113.03-23.83 113.08-23.83L113.08-23.83Q113.49-23.83 113.49-23.24L113.49-23.24 113.49-19.43Q113.57-19.19 113.69-19.19L113.69-19.19Q113.81-19.19 113.88-19.2 113.96-19.21 114.08-19.29L114.08-19.29Q115.64-20.09 116.73-20.64 117.81-21.19 118.61-21.57 119.4-21.95 120.02-22.16 120.65-22.36 121.28-22.47 121.92-22.58 122.67-22.61 123.43-22.63 124.53-22.63L124.53-22.63Q125.72-22.63 126.6-22.12 127.48-21.61 128.08-20.76 128.68-19.92 129.06-18.84 129.44-17.75 129.63-16.61 129.83-15.48 129.9-14.37 129.97-13.26 129.97-12.35L129.97-12.35Q129.97-11.5 129.94-10.77 129.9-10.03 129.86-9.17 129.83-8.3 129.79-7.2 129.75-6.1 129.75-4.54L129.75-4.54Q129.75-3.81 130.02-3.32 130.29-2.83 130.72-2.51 131.14-2.2 131.66-2.04 132.17-1.88 132.66-1.78 133.15-1.68 133.55-1.62 133.95-1.56 134.17-1.46L134.17-1.46Q134.27-1.42 134.34-1.15 134.42-0.88 134.42-0.76L134.42-0.76Q134.42-0.61 134.37-0.33 134.32-0.05 134.17 0L134.17 0 120.55 0Q120.4-0.05 120.35-0.33 120.31-0.61 120.31-0.76L120.31-0.76Q120.31-0.88 120.38-1.15 120.45-1.42 120.55-1.46L120.55-1.46Q120.87-1.61 121.39-1.7 121.92-1.78 122.47-2.08 123.01-2.37 123.47-2.97 123.92-3.56 124.06-4.74L124.06-4.74Q124.11-5.1 124.15-5.42 124.19-5.74 124.21-6.07 124.24-6.4 124.25-6.79 124.26-7.18 124.26-7.69L124.26-7.69Q124.26-8.79 124.24-10.03 124.21-11.28 124.21-12.82L124.21-12.82Q124.21-14.01 124.1-15.19 123.99-16.36 123.56-17.29 123.14-18.21 122.31-18.8 121.48-19.38 120.01-19.38L120.01-19.38Q119.5-19.38 119.1-19.32 118.69-19.26 118.12-19.04 117.55-18.82 116.62-18.38 115.69-17.94 114.13-17.19L114.13-17.19Q113.93-17.07 113.73-16.91 113.52-16.75 113.49-16.5L113.49-16.5 113.49-4.54Q113.49-3.44 113.93-2.87 114.37-2.29 114.96-2.04 115.54-1.78 116.13-1.7 116.72-1.61 117.03-1.46L117.03-1.46Q117.13-1.42 117.2-1.15 117.28-0.88 117.28-0.76L117.28-0.76Q117.28-0.61 117.23-0.33 117.18-0.05 117.03 0L117.03 0 104.29 0Q104.14-0.05 104.09-0.33 104.05-0.61 104.05-0.76L104.05-0.76Q104.05-0.88 104.12-1.15 104.19-1.42 104.29-1.46L104.29-1.46Q104.61-1.61 105.19-1.7 105.78-1.78 106.36-2.04 106.95-2.29 107.39-2.87 107.83-3.44 107.83-4.54L107.83-4.54 107.83-16.94Q107.83-17.53 107.51-17.86 107.19-18.19 106.71-18.36 106.22-18.53 105.66-18.64 105.1-18.75 104.58-18.9L104.58-18.9Q104.44-18.95 104.35-19.03 104.26-19.12 104.26-19.38L104.26-19.38Q104.26-19.51 104.34-19.63 104.41-19.75 104.63-19.87L104.63-19.87ZM138.91-17.82L138.91-17.82Q138.83-18.53 138.26-19.03 137.69-19.53 137.03-19.68L137.03-19.68Q136.86-19.73 136.65-19.74 136.44-19.75 136.27-19.79 136.1-19.82 135.99-19.91 135.88-20 135.88-20.21L135.88-20.21Q135.88-20.41 135.94-20.56 136-20.7 136.27-20.78L136.27-20.78 143.72-22.92Q143.86-22.97 144.02-23 144.18-23.02 144.33-23.02L144.33-23.02Q144.57-23.02 144.57-22.61L144.57-22.61 144.57-6.13Q144.57-5.3 144.95-4.63 145.33-3.96 145.94-3.49 146.55-3.03 147.33-2.78 148.11-2.54 148.94-2.54L148.94-2.54Q149.53-2.54 150.16-2.73 150.8-2.93 151.38-3.23 151.97-3.54 152.48-3.94 152.99-4.35 153.31-4.79L153.31-4.79 153.31-17.85Q153.24-18.55 152.66-19.06 152.09-19.56 151.43-19.7L151.43-19.7Q151.26-19.75 151.05-19.76 150.84-19.78 150.67-19.81 150.5-19.85 150.39-19.93 150.28-20.02 150.28-20.24L150.28-20.24Q150.28-20.43 150.34-20.58 150.41-20.73 150.67-20.8L150.67-20.8 158.12-22.92Q158.27-22.97 158.43-23 158.58-23.02 158.73-23.02L158.73-23.02Q158.97-23.02 158.97-22.8L158.97-22.8 158.97-5.96Q159.1-4.88 159.58-4.42 160.07-3.96 161.17-3.96L161.17-3.96 162.59-4.05Q162.69-4.05 162.71-3.72 162.73-3.39 162.73-3.25L162.73-3.25Q162.73-3.2 162.67-2.93 162.61-2.66 162.37-2.54L162.37-2.54 154.95 0.51Q154.9 0.54 154.7 0.6 154.51 0.66 154.48 0.66L154.48 0.66Q154.31 0.66 154.27 0.45 154.24 0.24 154.24 0.05L154.24 0.05 154.24-2.29Q154.16-2.39 153.99-2.39L153.99-2.39Q153.95-2.39 153.9-2.39 153.85-2.39 153.85-2.34L153.85-2.34 149.94-0.44Q149.4-0.24 148.94-0.06 148.48 0.12 148.02 0.29 147.57 0.46 147.06 0.56 146.55 0.66 145.94 0.66L145.94 0.66Q144.91 0.66 143.68 0.45 142.45 0.24 141.38-0.21 140.32-0.66 139.61-1.37 138.91-2.08 138.91-3.08L138.91-3.08 138.91-17.82ZM165.91-9.89L165.91-9.89Q165.91-12.74 166.71-15.15 167.52-17.55 169.03-19.31 170.54-21.07 172.73-22.05 174.91-23.02 177.7-23.02L177.7-23.02Q178.53-23.02 179.19-22.91 179.85-22.8 180.4-22.62 180.94-22.44 181.42-22.18 181.9-21.92 182.38-21.63L182.38-21.63Q182.95-21.34 183.67-20.58 184.39-19.82 185.02-18.82 185.66-17.82 186.1-16.69 186.54-15.55 186.54-14.5L186.54-14.5Q186.54-14.16 186.4-13.76 186.27-13.35 185.95-13.35L185.95-13.35 171.55-13.35Q171.3-13.35 171.22-12.92 171.13-12.48 171.13-11.84L171.13-11.84Q171.13-9.69 171.75-8.02 172.38-6.35 173.43-5.19 174.47-4.03 175.84-3.43 177.21-2.83 178.72-2.83L178.72-2.83Q179.68-2.83 180.55-3.09 181.43-3.34 182.24-3.76 183.04-4.17 183.75-4.69 184.46-5.2 185.09-5.71L185.09-5.71Q185.24-5.76 185.29-5.76L185.29-5.76Q185.36-5.76 185.49-5.64L185.49-5.64Q185.71-5.44 185.93-5.19 186.14-4.93 186.27-4.76L186.27-4.76Q186.34-4.69 186.34-4.61L186.34-4.61Q186.34-4.54 186.24-4.44L186.24-4.44Q185.44-3.49 184.26-2.58 183.09-1.66 181.76-0.94 180.43-0.22 179.04 0.22 177.65 0.66 176.4 0.66L176.4 0.66Q173.89 0.66 171.94-0.26 169.98-1.17 168.64-2.66 167.3-4.15 166.6-6.04 165.91-7.93 165.91-9.89ZM172.25-15.23L180.24-15.23Q180.87-15.23 180.87-15.8L180.87-15.8Q180.87-16.75 180.57-17.59 180.26-18.43 179.7-19.08 179.14-19.73 178.34-20.09 177.55-20.46 176.57-20.46L176.57-20.46Q175.4-20.46 174.52-19.96 173.64-19.46 173.03-18.75 172.42-18.04 172.12-17.29 171.81-16.53 171.81-15.99L171.81-15.99Q171.81-15.58 171.94-15.41 172.06-15.23 172.25-15.23L172.25-15.23ZM202.67-0.73L202.67-0.73Q202.67-0.59 202.62-0.32 202.57-0.05 202.43 0L202.43 0 189.68 0Q189.54-0.05 189.49-0.32 189.44-0.59 189.44-0.73L189.44-0.73Q189.44-0.85 189.51-1.12 189.58-1.39 189.68-1.44L189.68-1.44Q190-1.59 190.59-1.67 191.17-1.76 191.76-2.01 192.34-2.27 192.78-2.82 193.22-3.37 193.22-4.44L193.22-4.44 193.22-32.91Q193.22-33.5 192.9-33.83 192.59-34.16 192.1-34.33 191.61-34.5 191.05-34.61 190.49-34.72 189.98-34.86L189.98-34.86Q189.66-34.99 189.66-35.55L189.66-35.55Q189.66-35.67 189.73-35.88 189.8-36.08 190.02-36.21L190.02-36.21 198.11-40.01Q198.2-40.06 198.32-40.11 198.45-40.16 198.59-40.16L198.59-40.16Q198.79-40.16 198.84-40.03 198.89-39.89 198.89-39.58L198.89-39.58 198.89-4.44Q198.89-3.37 199.33-2.82 199.77-2.27 200.35-2.01 200.94-1.76 201.52-1.67 202.11-1.59 202.43-1.44L202.43-1.44Q202.52-1.39 202.6-1.12 202.67-0.85 202.67-0.73ZM238.97 0.63L238.97 0.63Q238.11 0.63 236.83 0.49 235.55 0.34 234.03-0.05 232.5-0.44 230.84-1.07 229.18-1.71 227.58-2.7 225.98-3.69 224.54-5.04 223.1-6.4 222.01-8.19 220.93-9.99 220.28-12.28 219.63-14.58 219.63-17.43L219.63-17.43Q219.63-19.97 220.33-22.29 221.02-24.61 222.32-26.61 223.61-28.61 225.46-30.25 227.3-31.88 229.57-33.03 231.84-34.18 234.5-34.81 237.16-35.45 240.09-35.45L240.09-35.45Q242.63-35.45 245.01-34.83 247.39-34.2 249.47-33.07 251.54-31.93 253.26-30.35 254.98-28.76 256.23-26.81 257.48-24.85 258.16-22.6 258.84-20.34 258.84-17.9L258.84-17.9Q258.84-15.6 258.18-13.34 257.52-11.08 256.28-9.02 255.03-6.96 253.26-5.2 251.49-3.44 249.3-2.14 247.1-0.83 244.49-0.1 241.87 0.63 238.97 0.63ZM226.81-18.33L226.81-18.33Q226.81-16.36 227.21-14.38 227.62-12.4 228.4-10.57 229.18-8.74 230.33-7.14 231.47-5.54 232.94-4.36 234.4-3.17 236.2-2.5 237.99-1.83 240.09-1.83L240.09-1.83Q243.05-1.83 245.22-3.09 247.39-4.35 248.82-6.42 250.25-8.5 250.94-11.19 251.64-13.89 251.64-16.77L251.64-16.77Q251.64-18.87 251.24-20.89 250.83-22.9 250.07-24.72 249.3-26.54 248.16-28.06 247.03-29.59 245.55-30.71 244.07-31.84 242.28-32.46 240.48-33.08 238.38-33.08L238.38-33.08Q236.5-33.08 234.92-32.5 233.33-31.91 232.05-30.9 230.77-29.88 229.79-28.48 228.81-27.08 228.15-25.44 227.49-23.8 227.15-21.98 226.81-20.17 226.81-18.33ZM275.25-0.73L275.25-0.73Q275.25-0.59 275.2-0.32 275.15-0.05 275 0L275 0 262.26 0Q262.11-0.05 262.06-0.32 262.01-0.59 262.01-0.73L262.01-0.73Q262.01-0.85 262.09-1.12 262.16-1.39 262.26-1.44L262.26-1.44Q262.58-1.59 263.16-1.67 263.75-1.76 264.33-2.01 264.92-2.27 265.36-2.82 265.8-3.37 265.8-4.44L265.8-4.44 265.8-32.91Q265.8-33.5 265.48-33.83 265.16-34.16 264.67-34.33 264.19-34.5 263.62-34.61 263.06-34.72 262.55-34.86L262.55-34.86Q262.23-34.99 262.23-35.55L262.23-35.55Q262.23-35.67 262.31-35.88 262.38-36.08 262.6-36.21L262.6-36.21 270.68-40.01Q270.78-40.06 270.9-40.11 271.02-40.16 271.17-40.16L271.17-40.16Q271.36-40.16 271.41-40.03 271.46-39.89 271.46-39.58L271.46-39.58 271.46-4.44Q271.46-3.37 271.9-2.82 272.34-2.27 272.93-2.01 273.51-1.76 274.1-1.67 274.68-1.59 275-1.44L275-1.44Q275.1-1.39 275.17-1.12 275.25-0.85 275.25-0.73ZM290.84-2.71L287.99-0.49Q287.18 0.07 286.08 0.39 284.98 0.71 283.89 0.71L283.89 0.71Q280.91 0.71 279.36-0.63 277.81-1.98 277.81-4.27L277.81-4.27Q277.81-5.59 278.41-6.54 279-7.5 280.18-8.23 281.35-8.96 283.07-9.56 284.79-10.16 287.06-10.74L287.06-10.74Q288.28-11.06 289.03-11.43 289.77-11.79 290.4-12.13L290.4-12.13Q290.82-12.35 290.88-12.52 290.94-12.7 290.94-12.84L290.94-12.84 290.94-17.09Q290.94-17.9 290.71-18.59 290.48-19.29 290.01-19.8 289.55-20.31 288.89-20.61 288.23-20.9 287.4-20.9L287.4-20.9Q286.69-20.9 286.08-20.65 285.47-20.41 285.03-19.95 284.59-19.48 284.34-18.85 284.08-18.21 284.08-17.41L284.08-17.41Q284.08-17.33 284.09-17.19 284.11-17.04 284.13-16.88 284.15-16.72 284.18-16.6 284.2-16.48 284.2-16.46L284.2-16.46Q284.18-16.41 283.8-16.26 283.42-16.11 282.87-15.93 282.32-15.75 281.66-15.56 281.01-15.38 280.41-15.21 279.81-15.04 279.36-14.9 278.91-14.77 278.73-14.75L278.73-14.75Q278.47-14.75 278.41-15.03 278.34-15.31 278.34-15.58L278.34-15.58Q278.34-16.99 279.2-18.33 280.05-19.68 281.48-20.72 282.91-21.75 284.77-22.39 286.62-23.02 288.6-23.02L288.6-23.02Q290.36-23.02 291.75-22.57 293.14-22.12 294.12-21.33 295.09-20.53 295.6-19.49 296.12-18.46 296.12-17.29L296.12-17.29 296.12-5.64Q296.12-5 296.59-4.5 297.07-4 297.83-4L297.83-4Q298.27-4 298.62-4.16 298.97-4.32 299.25-4.53 299.54-4.74 299.73-4.9 299.93-5.05 300.07-5.05L300.07-5.05Q300.27-5.05 300.29-4.9 300.32-4.74 300.32-4.61L300.32-4.61Q300.32-4.2 300.21-3.77 300.1-3.34 299.83-3.15L299.83-3.15Q298.63-2.25 297.7-1.53 296.78-0.81 296.02-0.29 295.26 0.22 294.65 0.49 294.04 0.76 293.51 0.76L293.51 0.76Q293.02 0.76 292.64 0.49 292.26 0.22 291.98-0.17 291.7-0.56 291.5-1.01 291.31-1.46 291.17-1.86 291.04-2.25 290.97-2.49 290.89-2.73 290.84-2.71L290.84-2.71ZM283.5-4.86L283.5-4.86Q283.5-4.2 283.75-3.78 284.01-3.37 284.42-3.15 284.84-2.93 285.36-2.84 285.89-2.76 286.45-2.76L286.45-2.76Q286.96-2.76 287.72-3.02 288.48-3.27 289.2-3.7 289.92-4.13 290.43-4.68 290.94-5.22 290.94-5.79L290.94-5.79 290.94-9.81Q290.94-10.08 290.75-10.08L290.75-10.08Q290.7-10.08 290.65-10.06L290.65-10.06 284.98-7.42Q284.64-7.18 284.36-6.97 284.08-6.76 283.89-6.48 283.69-6.2 283.59-5.82 283.5-5.44 283.5-4.86ZM309.01 15.14L309.01 15.14Q308.57 15.14 308.15 14.99 307.74 14.84 307.39 14.58 307.05 14.31 306.85 13.95 306.64 13.6 306.64 13.16L306.64 13.16Q306.64 12.48 306.99 12.11 307.35 11.74 307.86 11.5 308.37 11.25 308.93 11.08 309.49 10.91 309.88 10.62L309.88 10.62Q310.15 10.42 310.46 10.17 310.76 9.91 311.01 9.35L311.01 9.35 314.21 1.9 304.86-17.6Q304.44-18.73 303.66-19.57 302.88-20.41 301.75-20.78L301.75-20.78Q301.58-20.83 301.34-20.89 301.1-20.95 300.86-21.04 300.63-21.14 300.47-21.3 300.31-21.46 300.31-21.73L300.31-21.73Q300.31-21.97 300.46-22.22 300.61-22.46 300.9-22.46L300.9-22.46 313.79-22.46Q313.94-22.46 313.96-22.17 313.99-21.88 313.99-21.8L313.99-21.8Q313.99-21.46 313.71-21.33 313.42-21.19 313.01-21.14 312.59-21.09 312.12-21.07 311.64-21.04 311.23-20.9 310.81-20.75 310.53-20.43 310.25-20.12 310.25-19.48L310.25-19.48Q310.25-19.41 310.36-19.18 310.47-18.95 310.47-18.9L310.47-18.9 316.53-5.93Q316.57-5.81 316.71-5.58 316.84-5.35 317.01-5.35L317.01-5.35Q317.11-5.35 317.21-5.46 317.31-5.57 317.38-5.71 317.45-5.86 317.5-5.99 317.55-6.13 317.58-6.18L317.58-6.18Q318.7-9.06 319.47-11.06 320.24-13.06 320.74-14.38 321.24-15.7 321.49-16.44 321.75-17.19 321.86-17.59 321.97-17.99 321.99-18.18 322.02-18.36 322.02-18.53L322.02-18.53Q322.07-19.38 321.51-19.95 320.94-20.51 320.16-20.78L320.16-20.78Q319.94-20.85 319.61-20.89 319.28-20.92 318.98-21.01 318.67-21.09 318.44-21.28 318.21-21.46 318.21-21.8L318.21-21.8Q318.21-22 318.38-22.23 318.55-22.46 318.75-22.46L318.75-22.46 328.49-22.46Q328.68-22.46 328.72-22.18 328.76-21.9 328.76-21.78L328.76-21.78Q328.76-21.61 328.71-21.48 328.66-21.36 328.48-21.26 328.29-21.17 327.96-21.07 327.63-20.97 327.1-20.87L327.1-20.87Q326.58-20.78 326.17-20.37 325.75-19.97 325.42-19.45 325.09-18.92 324.84-18.33 324.58-17.75 324.39-17.29L324.39-17.29 312.01 13.38Q311.81 13.84 311.45 14.17 311.08 14.5 310.64 14.72 310.2 14.94 309.76 15.04 309.32 15.14 309.01 15.14Z" opacity="1" transform="matrix(1,0,0,1,0,0)" fill="#6b7280" class="undefined-text-0" data-fill-palette-color="primary" id="text-0"></path></svg></g></svg></g></svg></g></svg></g><g></g></svg></g></svg></g></svg></g></svg></g><defs></defs></svg><rect width="320" height="360" fill="none" stroke="none" visibility="hidden"></rect></g></svg></g></svg>